name rise49.8558peak67.6521fall70.3087.mot
datacolumns 19
datarows 24
range 8.36830000000000 8.40663100000000
endheader
time	ground_force1_vx	ground_force1_vy	ground_force1_vz	ground_force1_px	ground_force1_py	ground_force1_pz	ground_force2_vx	ground_force2_vy	ground_force2_vz	ground_force2_px	ground_force2_py	ground_force2_pz	ground_torque1_x	ground_torque1_y	ground_torque1_z	ground_torque2_x	ground_torque2_y	ground_torque2_z	
8.36830000000000	5.04930800000000	714.56862699999999	42.95210500000000	0.25715900000000	0.00000000000000	0.10821100000000	0.00000000000000	0.00000000000000	0.00000000000000	0.00000000000000	0.00000000000000	0.00000000000000	0.00000000000000	20.03770700000000	0.00000000000000	0.00000000000000	0.00000000000000	0.00000000000000	
8.36997300000000	4.73666700000000	714.67414699999995	42.95010800000000	0.25655600000000	0.00000000000000	0.10827000000000	0.00000000000000	0.00000000000000	0.00000000000000	0.00000000000000	0.00000000000000	0.00000000000000	0.00000000000000	20.06701100000000	0.00000000000000	0.00000000000000	0.00000000000000	0.00000000000000	
8.37163400000000	4.42288000000000	714.80346699999996	42.94831800000000	0.25597800000000	0.00000000000000	0.10832700000000	0.00000000000000	0.00000000000000	0.00000000000000	0.00000000000000	0.00000000000000	0.00000000000000	0.00000000000000	20.09849500000000	0.00000000000000	0.00000000000000	0.00000000000000	0.00000000000000	
8.37330000000000	4.10747100000000	714.95515100000000	42.94657100000000	0.25542300000000	0.00000000000000	0.10838200000000	0.00000000000000	0.00000000000000	0.00000000000000	0.00000000000000	0.00000000000000	0.00000000000000	0.00000000000000	20.13206600000000	0.00000000000000	0.00000000000000	0.00000000000000	0.00000000000000	
8.37496500000000	3.78995600000000	715.12780099999998	42.94472000000000	0.25488700000000	0.00000000000000	0.10843500000000	0.00000000000000	0.00000000000000	0.00000000000000	0.00000000000000	0.00000000000000	0.00000000000000	0.00000000000000	20.16763400000000	0.00000000000000	0.00000000000000	0.00000000000000	0.00000000000000	
8.37664200000000	3.46985300000000	715.32006100000001	42.94263400000000	0.25437000000000	0.00000000000000	0.10848600000000	0.00000000000000	0.00000000000000	0.00000000000000	0.00000000000000	0.00000000000000	0.00000000000000	0.00000000000000	20.20511400000000	0.00000000000000	0.00000000000000	0.00000000000000	0.00000000000000	
8.37830400000000	3.14667700000000	715.53062299999999	42.94019900000000	0.25386700000000	0.00000000000000	0.10853600000000	0.00000000000000	0.00000000000000	0.00000000000000	0.00000000000000	0.00000000000000	0.00000000000000	0.00000000000000	20.24442800000000	0.00000000000000	0.00000000000000	0.00000000000000	0.00000000000000	
8.37996600000000	2.81994400000000	715.75823400000002	42.93731700000000	0.25337800000000	0.00000000000000	0.10858400000000	0.00000000000000	0.00000000000000	0.00000000000000	0.00000000000000	0.00000000000000	0.00000000000000	0.00000000000000	20.28550400000000	0.00000000000000	0.00000000000000	0.00000000000000	0.00000000000000	
8.38163500000000	2.48917600000000	716.00170400000002	42.93390900000000	0.25289900000000	0.00000000000000	0.10863000000000	0.00000000000000	0.00000000000000	0.00000000000000	0.00000000000000	0.00000000000000	0.00000000000000	0.00000000000000	20.32827400000000	0.00000000000000	0.00000000000000	0.00000000000000	0.00000000000000	
8.38329900000000	2.15389900000000	716.25991099999999	42.92991200000000	0.25242800000000	0.00000000000000	0.10867600000000	0.00000000000000	0.00000000000000	0.00000000000000	0.00000000000000	0.00000000000000	0.00000000000000	0.00000000000000	20.37267800000000	0.00000000000000	0.00000000000000	0.00000000000000	0.00000000000000	
8.38496800000000	1.81364500000000	716.53180299999997	42.92528100000000	0.25196200000000	0.00000000000000	0.10872000000000	0.00000000000000	0.00000000000000	0.00000000000000	0.00000000000000	0.00000000000000	0.00000000000000	0.00000000000000	20.41866000000000	0.00000000000000	0.00000000000000	0.00000000000000	0.00000000000000	
8.38663800000000	1.46795700000000	716.81640600000003	42.91998900000000	0.25149900000000	0.00000000000000	0.10876300000000	0.00000000000000	0.00000000000000	0.00000000000000	0.00000000000000	0.00000000000000	0.00000000000000	0.00000000000000	20.46617300000000	0.00000000000000	0.00000000000000	0.00000000000000	0.00000000000000	
8.38829800000000	1.11639000000000	717.11283100000003	42.91402700000000	0.25103700000000	0.00000000000000	0.10880600000000	0.00000000000000	0.00000000000000	0.00000000000000	0.00000000000000	0.00000000000000	0.00000000000000	0.00000000000000	20.51517300000000	0.00000000000000	0.00000000000000	0.00000000000000	0.00000000000000	
8.38996900000000	0.75851000000000	717.42027099999996	42.90740200000000	0.25057200000000	0.00000000000000	0.10884700000000	0.00000000000000	0.00000000000000	0.00000000000000	0.00000000000000	0.00000000000000	0.00000000000000	0.00000000000000	20.56562400000000	0.00000000000000	0.00000000000000	0.00000000000000	0.00000000000000	
8.39163800000000	0.39389900000000	717.73801000000003	42.90014000000000	0.25010200000000	0.00000000000000	0.10888800000000	0.00000000000000	0.00000000000000	0.00000000000000	0.00000000000000	0.00000000000000	0.00000000000000	0.00000000000000	20.61749500000000	0.00000000000000	0.00000000000000	0.00000000000000	0.00000000000000	
8.39329900000000	0.02215800000000	718.06542700000000	42.89228300000000	0.24962600000000	0.00000000000000	0.10892900000000	0.00000000000000	0.00000000000000	0.00000000000000	0.00000000000000	0.00000000000000	0.00000000000000	0.00000000000000	20.67076200000000	0.00000000000000	0.00000000000000	0.00000000000000	0.00000000000000	
8.39497300000000	-0.35709500000000	718.40199299999995	42.88389000000000	0.24914000000000	0.00000000000000	0.10896900000000	0.00000000000000	0.00000000000000	0.00000000000000	0.00000000000000	0.00000000000000	0.00000000000000	0.00000000000000	20.72540500000000	0.00000000000000	0.00000000000000	0.00000000000000	0.00000000000000	
8.39663900000000	-0.74422300000000	718.74728000000005	42.87503800000000	0.24864300000000	0.00000000000000	0.10900900000000	0.00000000000000	0.00000000000000	0.00000000000000	0.00000000000000	0.00000000000000	0.00000000000000	0.00000000000000	20.78141000000000	0.00000000000000	0.00000000000000	0.00000000000000	0.00000000000000	
8.39830000000000	-1.13956300000000	719.10095600000000	42.86581700000000	0.24813100000000	0.00000000000000	0.10904900000000	0.00000000000000	0.00000000000000	0.00000000000000	0.00000000000000	0.00000000000000	0.00000000000000	0.00000000000000	20.83876900000000	0.00000000000000	0.00000000000000	0.00000000000000	0.00000000000000	
8.39997000000000	-1.54343100000000	719.46279400000003	42.85633500000000	0.24760400000000	0.00000000000000	0.10908900000000	0.00000000000000	0.00000000000000	0.00000000000000	0.00000000000000	0.00000000000000	0.00000000000000	0.00000000000000	20.89747900000000	0.00000000000000	0.00000000000000	0.00000000000000	0.00000000000000	
8.40164000000000	-1.95611500000000	719.83266500000002	42.84671400000000	0.24706000000000	0.00000000000000	0.10912900000000	0.00000000000000	0.00000000000000	0.00000000000000	0.00000000000000	0.00000000000000	0.00000000000000	0.00000000000000	20.95754000000000	0.00000000000000	0.00000000000000	0.00000000000000	0.00000000000000	
8.40329900000000	-2.37787900000000	720.21054400000003	42.83709100000000	0.24649500000000	0.00000000000000	0.10917000000000	0.00000000000000	0.00000000000000	0.00000000000000	0.00000000000000	0.00000000000000	0.00000000000000	0.00000000000000	21.01895700000000	0.00000000000000	0.00000000000000	0.00000000000000	0.00000000000000	
8.40496700000000	-2.80895600000000	720.59650599999998	42.82761400000000	0.24591000000000	0.00000000000000	0.10921000000000	0.00000000000000	0.00000000000000	0.00000000000000	0.00000000000000	0.00000000000000	0.00000000000000	0.00000000000000	21.08174000000000	0.00000000000000	0.00000000000000	0.00000000000000	0.00000000000000	
8.40663100000000	-3.24955100000000	720.99072999999999	42.81844800000000	0.24530100000000	0.00000000000000	0.10925200000000	0.00000000000000	0.00000000000000	0.00000000000000	0.00000000000000	0.00000000000000	0.00000000000000	0.00000000000000	21.14590200000000	0.00000000000000	0.00000000000000	0.00000000000000	0.00000000000000	
